<svg xmlns="http://www.w3.org/2000/svg" viewBox="0 0 256 256"><path id="logo" d="M128.5 0c-2.667 0-5.333.167-8 .5a62.511 62.511 0 00-7.875 1.5A80.743 80.743 0 00105 4.375a47.66 47.66 0 00-7.25 3.375c-2 1-4 2.167-6 3.5a48.314 48.314 0 00-5.625 4.375A141.576 141.576 0 0081 20.5a71.02 71.02 0 00-4.75 5.25 328.815 328.815 0 00-4 5.625 72.7 72.7 0 00-3.75 6 91.632 91.632 0 00-3.25 6.375c-1 2.167-1.917 4.333-2.75 6.5a73.015 73.015 0 00-2.625 7.125 106.584 106.584 0 00-2 7.375c-.583 2.5-1.125 5-1.625 7.5s-.833 5-1 7.5a99.723 99.723 0 00-.75 7 99.99 99.99 0 00-.25 7.125c0 2.417.083 4.792.25 7.125.167 2.333.417 4.667.75 7a105.87 105.87 0 002.5 14.375 159.008 159.008 0 004.125 14 145.515 145.515 0 005.5 13.625c2.083 4.5 4.292 8.833 6.625 13a179.502 179.502 0 0011.5 17.75 178.267 178.267 0 0013.375 16.125 179.777 179.777 0 0015.25 14.5A194.196 194.196 0 00130.75 224c5 3.333 10.125 6.417 15.375 9.25A190.986 190.986 0 00162.25 241a194.348 194.348 0 0016.875 6.25 161.29 161.29 0 0017.375 4.5c2.667.5 5.292.958 7.875 1.375 2.583.417 5.208.792 7.875 1.125a260.623 260.623 0 0016 1.5h2.25l1.125.125 1.125.125H238v-16.5h-5.25c-3.667 0-7.333-.167-11-.5-3.667-.333-7.292-.75-10.875-1.25s-7.167-1.125-10.75-1.875a152.042 152.042 0 01-10.625-2.625 190.698 190.698 0 01-12.25-3.875c-4-1.417-7.958-3-11.875-4.75a183.497 183.497 0 01-11.5-5.625c-3.75-2-7.375-4.167-10.875-6.5a202.176 202.176 0 01-9.75-6.75 130.577 130.577 0 01-9.125-7.375 257.934 257.934 0 01-8.625-8c-2.833-2.75-5.5-5.542-8-8.375a124.894 124.894 0 01-8.875-11 222.024 222.024 0 01-7.875-11.75c-2.5-4-4.792-8.125-6.875-12.375a141.262 141.262 0 01-5.625-13.125c-.833-2.5-1.625-5-2.375-7.5s-1.458-5-2.125-7.5a77.414 77.414 0 01-1.625-7.625 81.262 81.262 0 01-.875-7.875c-.333-2.5-.5-5.042-.5-7.625s.042-5.167.125-7.75c.083-2.583.292-5.125.625-7.625s.75-5 1.25-7.5a92.172 92.172 0 011.75-6.875c.667-2.25 1.375-4.5 2.125-6.75a90.205 90.205 0 012.5-6.625 54.647 54.647 0 013.125-6.25c1.167-2 2.375-3.958 3.625-5.875a52.573 52.573 0 014.125-5.5 67.33 67.33 0 014.75-5 40.907 40.907 0 015.5-4.375c2-1.5 4.083-2.792 6.25-3.875 2.167-1.083 4.417-2 6.75-2.75a51.125 51.125 0 017.25-1.75c2.5-.417 4.917-.625 7.25-.625a27.61 27.61 0 015.25 0c1.667.167 3.333.375 5 .625 1.667.25 3.292.625 4.875 1.125 1.583.5 3.125 1.083 4.625 1.75a34.78 34.78 0 015.375 2.5c1.75 1 3.417 2.083 5 3.25a64.986 64.986 0 014.625 3.75 31.869 31.869 0 014 4.25 54.811 54.811 0 014.25 5.375 72.848 72.848 0 013.625 5.75 67.12 67.12 0 013 6A338.143 338.143 0 01180 57c1 3.167 1.917 6.292 2.75 9.375s1.5 6.25 2 9.5.875 6.458 1.125 9.625.375 6.417.375 9.75c0 2.5-.125 5.083-.375 7.75s-.583 5.292-1 7.875a112.104 112.104 0 01-1.5 7.625c-.583 2.5-1.292 5-2.125 7.5a86.6 86.6 0 01-2.375 7.5 146.135 146.135 0 01-6.375 14.75 143.103 143.103 0 01-3.75 7 151.195 151.195 0 01-7.125 11.375 215.188 215.188 0 01-8 10.875 126.47 126.47 0 01-8.875 10.125 142.239 142.239 0 01-9.75 9.125c1.167 1 2.292 1.917 3.375 2.75a48.916 48.916 0 003.375 2.375 86.49 86.49 0 013.5 2.375 41.178 41.178 0 003.5 2.25 272.434 272.434 0 015-4.875 92.38 92.38 0 004.875-5c1.583-1.75 3.125-3.5 4.625-5.25s3-3.542 4.5-5.375c3-3.833 5.833-7.75 8.5-11.75s5.167-8.125 7.5-12.375 4.5-8.583 6.5-13S194 140 195.5 135.5c1.333-4.167 2.5-8.333 3.5-12.5s1.792-8.417 2.375-12.75.958-8.667 1.125-13c.167-4.333.083-8.667-.25-13-.333-4-.833-8-1.5-12s-1.542-7.958-2.625-11.875a109.639 109.639 0 00-3.875-11.5c-1.5-3.75-3.167-7.458-5-11.125a195.43 195.43 0 01-3.375-5.5A45.218 45.218 0 00182.25 27a115.768 115.768 0 00-8.5-9.5 48.143 48.143 0 00-4.875-4.25A77.692 77.692 0 00163.5 9.5a47.763 47.763 0 00-5.75-3.125c-2-.917-4-1.708-6-2.375a80.277 80.277 0 00-5.375-1.75A56.05 56.05 0 00141 1a60.945 60.945 0 00-5.625-.75A64.932 64.932 0 00129.75 0h-1.25zM108 217c-.167-.167-.292-.25-.375-.25-.083 0-.167.042-.25.125a1.454 1.454 0 01-.375.25 1.11 1.11 0 01-.5.125l-5.5 3-5.625 2.875c-3.75 1.917-5.708 2.792-5.875 2.625-.167-.167-2.083.583-5.75 2.25A150.94 150.94 0 0168 233.125a214.421 214.421 0 01-16.125 3.625C46.458 237.75 41 238.5 35.5 239s-11 .667-16.5.5v16.25c.167.167.333.25.5.25H21c3.833 0 7.625-.125 11.375-.375S39.833 255 43.5 254.5s7.375-1.042 11.125-1.625S62 251.583 65.5 250.75c5-1.167 9.917-2.542 14.75-4.125a207.615 207.615 0 0014.25-5.25A170.949 170.949 0 00108.25 235c4.5-2.333 8.917-4.833 13.25-7.5L118 225l-3.375-2.625-3.25-2.75L108 217z" fill="currentColor" fill-rule="nonzero"/></svg>
